<svg display="none" version="1.1" xmlns="http://www.w3.org/2000/svg" xmlns:xlink="http://www.w3.org/1999/xlink" width="1140" height="20" viewBox="0 0 1140 20">
    <desc>HAHO Main Menu Icon Set</desc>
    <defs>
        
        <symbol id="lnr-power-switch" viewBox="0 0 1024 1024">
            <title>power-switch</title><path class="path1" d="M486.4 614.4c-14.138 0-25.6-11.461-25.6-25.6v-460.8c0-14.138 11.462-25.6 25.6-25.6s25.6 11.462 25.6 25.6v460.8c0 14.139-11.462 25.6-25.6 25.6z"></path><path class="path2" d="M486.4 972.8c-102.57 0-199-39.944-271.53-112.47-72.528-72.528-112.47-168.96-112.47-271.53 0-84.395 26.859-164.478 77.674-231.594 49.15-64.915 118.979-113.394 196.624-136.501 13.55-4.034 27.805 3.683 31.838 17.234s-3.683 27.805-17.234 31.838c-139.955 41.654-237.702 172.84-237.702 319.022 0 183.506 149.294 332.8 332.8 332.8s332.8-149.294 332.8-332.8c0-146.187-97.75-277.374-237.71-319.024-13.552-4.034-21.267-18.288-17.234-31.838 4.032-13.552 18.29-21.267 31.837-17.235 77.646 23.106 147.48 71.582 196.632 136.499 50.816 67.115 77.675 147.202 77.675 231.598 0 102.57-39.942 199.002-112.47 271.53-72.528 72.526-168.96 112.47-271.53 112.47z"></path>
        </symbol>
        
<!--        AHA 건조한 피부용 메뉴 아이콘-->
        <symbol id="lnr-star-empty" viewBox="0 0 1024 1024">
            <title>star-empty</title>
            <path class="path1" d="M281.57 426.67c-12.29 0-23.134-8.874-25.221-21.395-2.325-13.946 7.098-27.136 21.043-29.461l89.541-14.923 19.77-39.539c6.323-12.646 21.701-17.773 34.346-11.45 12.646 6.323 17.771 21.701 11.45 34.346l-25.6 51.2c-3.664 7.326-10.61 12.458-18.69 13.803l-102.4 17.067c-1.424 0.237-2.842 0.352-4.238 0.352z"></path><path class="path2" d="M128 512c-6.552 0-13.102-2.499-18.101-7.499l-51.2-51.2c-6.781-6.781-9.203-16.782-6.277-25.914s10.71-15.862 20.17-17.438l102.4-17.067c13.957-2.326 27.136 7.099 29.461 21.043 2.325 13.946-7.098 27.136-21.043 29.461l-53.331 8.8[] ]]]]]]]]]]]] 16.024 16.026c9.998 9.997 9.998 26.206 0 36.203-5 4.997-11.55 7.496-18.102 7.496z"></path><path class="path3" d="M759.434 768.005c-12.29 0-23.134-8.875-25.221-21.397l-17.066-102.4c-1.36-8.155 1.302-16.464 7.15-22.309l51.2-51.2c9.997-9.997 26.206-9.997 36.203 0 9.998 9.997 9.998 26.206 0 36.203l-41.885 41.885 14.899 89.406c2.325 13.946-7.098 27.136-21.043 29.459-1.422 0.237-2.838 0.352-4.238 0.352z"></path><path class="path4" d="M793.598 972.8c-4.205 0-8.422-1.034-12.256-3.126l-153.606-83.784c-12.413-6.768-16.986-22.32-10.216-34.731 6.766-12.414 22.32-16.99 34.731-10.216l107.453 58.61-8.424-50.542c-2.325-13.947 7.098-27.136 21.042-29.461 13.955-2.322 27.136 7.096 29.461 21.042l17.067 102.4c1.61 9.661-2.434 19.394-10.413 25.070-4.418 3.144-9.619 4.739-14.838 4.739z"></path><path class="path5" d="M273.098 716.805c-1.398 0-2.814-0.115-4.238-0.354-13.946-2.325-23.366-15.514-21.043-29.461l6.368-38.205-41.885-41.885c-9.998-9.997-9.998-26.206 0-36.203s26.206-9.997 36.203 0l51.2 51.2c5.846 5.845 8.509 14.155 7.15 22.31l-8.533 51.2c-2.088 12.522-12.934 21.397-25.222 21.397z"></path><path class="path6" d="M230.402 972.8c-5.221 0-10.421-1.595-14.842-4.739-7.981-5.677-12.022-15.41-10.413-25.069l25.6-153.598c2.325-13.947 15.514-23.368 29.461-21.043 13.946 2.323 23.366 15.514 21.043 29.459l-16.957 101.742 56.246-30.68c12.41-6.771 27.963-2.197 34.733 10.214 6.77 12.413 2.197 27.963-10.216 34.733l-102.4 55.854c-3.834 2.093-8.051 3.126-12.256 3.126z"></path><path class="path7" d="M435.222 861.096c-9.067 0-17.85-4.827-22.498-13.347-6.77-12.411-2.197-27.963 10.216-34.731l76.8-41.891c7.64-4.168 16.875-4.168 24.517 0l25.595 13.962c12.413 6.768 16.986 22.32 10.216 34.731-6.766 12.414-22.32 16.99-34.731 10.216l-13.338-7.274-64.541 35.203c-3.893 2.123-8.094 3.131-12.237 3.131z"></path><path class="path8" d="M896 512c-6.552 0-13.102-2.499-18.101-7.499-9.998-9.997-9.998-26.206 0-36.203l16.024-16.026-104.53-17.422c-13.947-2.325-23.368-15.514-21.043-29.461s15.533-23.368 29.459-21.043l153.6 25.6c9.459 1.576 17.243 8.307 20.17 17.438s0.504 19.133-6.277 25.914l-51.2 51.2c-5 5.003-11.55 7.502-18.102 7.502z"></path><path class="path9" d="M691.234 418.138c-1.398 0-2.816-0.115-4.24-0.352l-51.202-8.533c-8.078-1.346-15.026-6.477-18.688-13.802l-51.2-102.395c-6.323-12.646-1.198-28.024 11.448-34.346 12.643-6.323 28.024-1.197 34.346 11.448l45.37 90.736 38.344 6.39c13.946 2.325 23.366 15.514 21.042 29.461-2.086 12.518-12.933 21.392-25.219 21.392z"></path><path class="path10" d="M460.779 256.005c-3.846 0-7.754-0.87-11.429-2.707-12.646-6.323-17.771-21.701-11.45-34.346l51.2-102.4c4.338-8.674 13.203-14.152 22.899-14.152 0 0 0 0 0 0 9.698 0 18.562 5.478 22.898 14.152l25.598 51.2c6.323 12.646 1.197 28.024-11.448 34.346-12.646 6.325-28.024 1.198-34.346-11.45l-2.702-5.403-28.301 56.603c-4.486 8.971-13.53 14.157-22.92 14.157z"></path>
        </symbol>
        
<!--        BHA 모공축소 메뉴 아이콘 -->
        <symbol id="lnr-dice" viewBox="0 0 1024 1024">
            <title>dice</title><path class="path1" d="M281.6 819.2c-42.347 0-76.8-34.451-76.8-76.8s34.453-76.8 76.8-76.8 76.8 34.451 76.8 76.8-34.453 76.8-76.8 76.8zM281.6 716.8c-14.115 0-25.6 11.485-25.6 25.6s11.485 25.6 25.6 25.6 25.6-11.485 25.6-25.6-11.485-25.6-25.6-25.6z"></path><path class="path2" d="M281.6 614.4c-42.347 0-76.8-34.451-76.8-76.8s34.453-76.8 76.8-76.8 76.8 34.451 76.8 76.8-34.453 76.8-76.8 76.8zM281.6 512c-14.115 0-25.6 11.485-25.6 25.6s11.485 25.6 25.6 25.6 25.6-11.485 25.6-25.6-11.485-25.6-25.6-25.6z"></path><path class="path3" d="M281.6 409.6c-42.347 0-76.8-34.453-76.8-76.8s34.453-76.8 76.8-76.8 76.8 34.453 76.8 76.8-34.453 76.8-76.8 76.8zM281.6 307.2c-14.115 0-25.6 11.485-25.6 25.6s11.485 25.6 25.6 25.6 25.6-11.485 25.6-25.6-11.485-25.6-25.6-25.6z"></path><path class="path4" d="M691.2 409.6c-42.349 0-76.8-34.453-76.8-76.8s34.451-76.8 76.8-76.8 76.8 34.453 76.8 76.8-34.451 76.8-76.8 76.8zM691.2 307.2c-14.115 0-25.6 11.485-25.6 25.6s11.485 25.6 25.6 25.6 25.6-11.485 25.6-25.6-11.485-25.6-25.6-25.6z"></path><path class="path5" d="M691.2 614.4c-42.349 0-76.8-34.451-76.8-76.8s34.451-76.8 76.8-76.8 76.8 34.451 76.8 76.8-34.451 76.8-76.8 76.8zM691.2 512c-14.115 0-25.6 11.485-25.6 25.6s11.485 25.6 25.6 25.6 25.6-11.485 25.6-25.6-11.485-25.6-25.6-25.6z"></path><path class="path6" d="M691.2 819.2c-42.349 0-76.8-34.451-76.8-76.8s34.451-76.8 76.8-76.8 76.8 34.451 76.8 76.8-34.451 76.8-76.8 76.8zM691.2 716.8c-14.115 0-25.6 11.485-25.6 25.6s11.485 25.6 25.6 25.6 25.6-11.485 25.6-25.6-11.485-25.6-25.6-25.6z"></path><path class="path7" d="M793.6 972.8h-614.4c-70.579 0-128-57.421-128-128v-614.4c0-70.579 57.421-128 128-128h614.4c70.579 0 128 57.421 128 128v614.4c0 70.579-57.421 128-128 128zM179.2 153.6c-42.347 0-76.8 34.453-76.8 76.8v614.4c0 42.349 34.453 76.8 76.8 76.8h614.4c42.349 0 76.8-34.451 76.8-76.8v-614.4c0-42.347-34.451-76.8-76.8-76.8h-614.4z"></path>
        </symbol>        
        
<!--        HYD 영양분공급메뉴 아이콘 -->
        <symbol id="lnr-drop" viewBox="0 0 1024 1024">
            <title>drop</title><path class="path1" d="M512 1024c-82.619 0-159.64-33.55-216.877-94.472-58.013-61.747-89.962-146.387-89.963-238.328 0-150.678 66.979-258.499 137.893-372.653 54.789-88.197 111.443-179.397 144.248-299.683 3.038-11.138 13.155-18.864 24.699-18.864s21.661 7.726 24.699 18.864c32.813 120.317 89.56 211.536 144.438 299.752 71 114.131 138.062 221.933 138.062 372.584 0 92.131-31.749 176.763-89.395 238.301-57.085 60.938-134.437 94.499-217.805 94.499zM512.003 108.208c-34.509 90.949-80.589 165.125-125.459 237.355-69.856 112.451-130.184 209.566-130.184 345.635 0 160.539 109.902 281.6 255.64 281.6 145.944 0 256-121.061 256-281.6 0-136.027-60.4-233.117-130.338-345.539-44.95-72.254-91.112-146.461-125.659-237.451z"></path>
        </symbol>
        
<!--        OXYGEN 메뉴 아이콘-->
        <symbol id="lnr-magic-wand" viewBox="0 0 1024 1024">
            <title>magic-wand</title>
            <path class="path1" d="M588.8 358.4c-14.139 0-25.6-11.462-25.6-25.6 0-70.579-57.421-128-128-128-14.138 0-25.6-11.462-25.6-25.6s11.462-25.6 25.6-25.6c70.579 0 128-57.421 128-128 0-14.138 11.461-25.6 25.6-25.6s25.6 11.462 25.6 25.6c0 70.579 57.421 128 128 128 14.139 0 25.6 11.462 25.6 25.6s-11.461 25.6-25.6 25.6c-70.579 0-128 57.421-128 128 0 14.138-11.461 25.6-25.6 25.6zM527.426 179.2c25.11 15.136 46.238 36.264 61.374 61.376 15.136-25.112 36.264-46.24 61.376-61.376-25.112-15.136-46.24-36.264-61.376-61.376-15.136 25.112-36.264 46.24-61.374 61.376z"></path><path class="path2" d="M76.8 512c-14.138 0-25.6-11.462-25.6-25.6 0-14.115-11.485-25.6-25.6-25.6-14.138 0-25.6-11.462-25.6-25.6s11.462-25.6 25.6-25.6c14.115 0 25.6-11.485 25.6-25.6 0-14.138 11.462-25.6 25.6-25.6s25.6 11.462 25.6 25.6c0 14.115 11.485 25.6 25.6 25.6 14.138 0 25.6 11.462 25.6 25.6s-11.462 25.6-25.6 25.6c-14.115 0-25.6 11.485-25.6 25.6 0 14.138-11.462 25.6-25.6 25.6z"></path><path class="path3" d="M929.101 816.096l-541.995-541.994c-14.466-14.466-33.752-22.432-54.306-22.432s-39.84 7.966-54.306 22.432l-29.992 29.992c-14.466 14.466-22.432 33.752-22.432 54.306s7.966 39.84 22.432 54.306l541.994 541.992c14.464 14.466 33.75 22.434 54.304 22.434s39.84-7.965 54.306-22.434l29.994-29.992c14.466-14.464 22.432-33.752 22.432-54.304s-7.965-39.842-22.43-54.306zM284.706 340.298l29.992-29.992c4.795-4.795 11.224-7.435 18.102-7.435s13.307 2.64 18.102 7.435l73.691 73.693-66.197 66.197-73.691-73.691c-9.982-9.984-9.982-26.224 0-36.206zM892.894 888.502l-29.994 29.992c-4.794 4.794-11.224 7.434-18.099 7.434s-13.306-2.64-18.099-7.434l-432.102-432.099 66.197-66.195 432.098 432.099c9.981 9.981 9.981 26.222 0 36.203z"></path><path class="path4" d="M179.2 256c-14.138 0-25.6-11.462-25.6-25.6 0-42.347-34.453-76.8-76.8-76.8-14.138 0-25.6-11.462-25.6-25.6s11.462-25.6 25.6-25.6c42.347 0 76.8-34.453 76.8-76.8 0-14.138 11.462-25.6 25.6-25.6s25.6 11.462 25.6 25.6c0 42.347 34.453 76.8 76.8 76.8 14.138 0 25.6 11.462 25.6 25.6s-11.462 25.6-25.6 25.6c-42.347 0-76.8 34.453-76.8 76.8 0 14.138-11.462 25.6-25.6 25.6zM153.52 128c9.725 7.304 18.376 15.957 25.68 25.68 7.304-9.725 15.957-18.376 25.68-25.68-9.725-7.304-18.376-15.957-25.68-25.68-7.304 9.723-15.957 18.376-25.68 25.68z"></path><path class="path5" d="M179.2 768c-14.138 0-25.6-11.461-25.6-25.6 0-42.347-34.453-76.8-76.8-76.8-14.138 0-25.6-11.461-25.6-25.6s11.462-25.6 25.6-25.6c42.347 0 76.8-34.453 76.8-76.8 0-14.139 11.462-25.6 25.6-25.6s25.6 11.461 25.6 25.6c0 42.347 34.453 76.8 76.8 76.8 14.138 0 25.6 11.461 25.6 25.6s-11.462 25.6-25.6 25.6c-42.347 0-76.8 34.453-76.8 76.8 0 14.139-11.462 25.6-25.6 25.6zM153.52 640c9.725 7.302 18.376 15.957 25.68 25.68 7.304-9.723 15.957-18.374 25.68-25.68-9.725-7.302-18.376-15.957-25.68-25.68-7.304 9.723-15.957 18.378-25.68 25.68z"></path>
        </symbol>
        
        
        <symbol id="symbol_icon_clean" viewBox="0 0 1024 1024">
          <title>leaf</title><path class="path1" d="M1017.987 9.117c-4.862-5.779-12.030-9.115-19.582-9.117l-26.114-0.008c-258.027-0.091-461.854-0.163-611.93 35.728-80.627 19.283-142.987 48.411-190.643 89.051-51.387 43.819-86.445 101.243-107.178 175.549-13.771 49.363-20.213 138.478 6.96 227.178 10.043 32.787 25.696 63.682 46.584 92.093-62.246 97.517-116.085 226.014-116.085 378.81 0 14.139 11.462 25.6 25.6 25.6s25.6-11.461 25.6-25.6c0-235.789 139.654-410.651 222.901-493.899 59.741-59.739 127.301-110.166 195.378-145.824 63.373-33.195 123.933-51.477 170.522-51.477 14.139 0 25.6-11.462 25.6-25.6s-11.461-25.6-25.6-25.6c-55.506 0-122.686 19.822-194.278 57.323-72.603 38.030-144.467 91.621-207.822 154.976-26.726 26.726-58.899 62.346-90.824 105.994-12.403-19.496-21.998-40.173-28.619-61.79-25.597-83.555-16.19-164.038-6.597-198.422 73.206-262.397 351.32-263.072 855.925-262.89-60.16 321.93-172.331 530.309-333.613 619.571-149.582 82.786-298.008 37.613-354.877 14.346-12.005-4.912-24.051-10.949-35.802-17.944-12.147-7.227-27.858-3.243-35.091 8.904-7.232 12.149-3.245 27.859 8.902 35.093 13.923 8.288 28.256 15.464 42.602 21.334 31.843 13.027 83.144 29.706 146.704 35.184 14.034 1.21 27.928 1.814 41.672 1.814 75.189 0 145.893-18.077 210.682-53.934 82.37-45.587 153.675-119.736 211.938-220.384 68.315-118.018 119.699-274.534 152.723-465.205 1.29-7.443-0.774-15.074-5.637-20.853z"></path>
        </symbol>
        
          <symbol id="lnr-cog" viewBox="0 0 1024 1024">
              <title>cog</title>
              <path class="path1" d="M390.71 1008.755c-2.109 0-4.248-0.262-6.378-0.81-45.976-11.803-90.149-30.042-131.291-54.21-11.923-7.003-16.13-22.21-9.501-34.344 8.15-14.925 12.459-31.866 12.459-48.992 0-56.464-45.936-102.4-102.4-102.4-17.125 0-34.066 4.309-48.992 12.459-12.133 6.627-27.339 2.421-34.342-9.501-24.17-41.142-42.408-85.315-54.211-131.293-3.333-12.989 3.92-26.349 16.629-30.629 41.699-14.037 69.717-53.034 69.717-97.037s-28.018-83-69.718-97.040c-12.707-4.278-19.962-17.638-16.627-30.627 11.803-45.976 30.042-90.149 54.211-131.291 7.003-11.923 22.21-16.13 34.344-9.501 14.923 8.15 31.864 12.459 48.99 12.459 56.464 0 102.4-45.936 102.4-102.4 0-17.126-4.309-34.067-12.459-48.99-6.629-12.134-2.422-27.341 9.501-34.344 41.141-24.168 85.314-42.408 131.291-54.211 12.994-3.334 26.349 3.92 30.627 16.627 14.040 41.701 53.037 69.718 97.040 69.718s83-28.018 97.038-69.717c4.28-12.71 17.645-19.965 30.629-16.629 45.976 11.802 90.15 30.042 131.293 54.211 11.922 7.003 16.128 22.208 9.501 34.342-8.152 14.926-12.461 31.867-12.461 48.992 0 56.464 45.936 102.4 102.4 102.4 17.126 0 34.067-4.309 48.992-12.459 12.138-6.629 27.341-2.421 34.344 9.501 24.166 41.141 42.406 85.314 54.21 131.291 3.334 12.989-3.918 26.349-16.627 30.627-41.701 14.040-69.718 53.037-69.718 97.040s28.018 83 69.718 97.038c12.707 4.28 19.962 17.638 16.627 30.629-11.803 45.976-30.042 90.15-54.21 131.291-7.005 11.925-22.208 16.128-34.344 9.502-14.926-8.152-31.867-12.461-48.992-12.461-56.464 0-102.4 45.936-102.4 102.4 0 17.125 4.309 34.066 12.461 48.992 6.627 12.136 2.421 27.341-9.502 34.344-41.141 24.166-85.314 42.406-131.291 54.21-12.992 3.336-26.349-3.918-30.629-16.627-14.038-41.701-53.035-69.718-97.038-69.718s-83 28.018-97.040 69.718c-3.578 10.624-13.502 17.437-24.25 17.437zM512 870.4c57.715 0 109.693 32.138 135.917 82.029 26.637-8.218 52.507-18.875 77.299-31.846-5.541-16.077-8.416-33.075-8.416-50.182 0-84.696 68.904-153.6 153.6-153.6 17.107 0 34.106 2.875 50.181 8.418 12.971-24.792 23.63-50.662 31.846-77.299-49.89-26.226-82.027-78.203-82.027-135.918s32.138-109.691 82.029-135.918c-8.218-26.637-18.875-52.506-31.846-77.299-16.077 5.542-33.074 8.418-50.182 8.418-84.696 0-153.6-68.904-153.6-153.6 0-17.107 2.875-34.106 8.418-50.181-24.792-12.971-50.662-23.63-77.299-31.846-26.226 49.89-78.203 82.027-135.918 82.027s-109.691-32.138-135.917-82.027c-26.637 8.216-52.507 18.874-77.299 31.846 5.542 16.075 8.416 33.072 8.416 50.181 0 84.696-68.904 153.6-153.6 153.6-17.109 0-34.106-2.874-50.181-8.418-12.973 24.794-23.63 50.662-31.846 77.299 49.89 26.227 82.027 78.203 82.027 135.918s-32.138 109.693-82.027 135.917c8.216 26.637 18.875 52.507 31.846 77.299 16.075-5.541 33.074-8.416 50.181-8.416 84.696 0 153.6 68.904 153.6 153.6 0 17.109-2.875 34.106-8.418 50.181 24.794 12.971 50.662 23.63 77.299 31.846 26.227-49.89 78.203-82.027 135.918-82.027z">
              </path>
              <path class="path2"  d="M512 665.6c-84.696 0-153.6-68.904-153.6-153.6s68.904-153.6 153.6-153.6 153.6 68.904 153.6 153.6-68.904 153.6-153.6 153.6zM512 409.6c-56.464 0-102.4 45.936-102.4 102.4s45.936 102.4 102.4 102.4c56.464 0 102.4-45.936 102.4-102.4s-45.936-102.4-102.4-102.4z"></path>
        </symbol>


        <symbol id="zz-btn-close" viewBox="0 0 512 512">
            <title>close button</title>
            <!--<path  d="M478.047,57.251H156.629L0,256.005l156.628,198.744h321.418c18.763,0,33.953-15.171,33.953-33.913V91.188  C512,72.468,496.81,57.251,478.047,57.251 M408.602,345.363l-25.396,25.4l-89.387-89.346l-89.379,89.346l-25.358-25.4l89.339-89.358  l-89.339-89.366l25.358-25.395l89.379,89.379l89.387-89.379l25.396,25.395l-89.342,89.366L408.602,345.363z">
            </path>-->

            <path
                id="path5"
                d="M 156.62891,57.251953 0,256.00586 l 156.62891,198.74219 321.41797,0 c 18.76299,0 33.95117,-15.17011 33.95117,-33.91211 l 0,-329.64844 c 0.001,-18.72 -15.18818,-33.935547 -33.95117,-33.935547 z" />
            <text
                id="text3351"
                y="336.34985"
                x="263.09167"
                style="font-style:normal;font-variant:normal;font-weight:normal;font-stretch:normal;font-size:40px;line-height:125%;font-family:'Liberation Mono';-inkscape-font-specification:'Liberation Mono';letter-spacing:0px;word-spacing:0px;opacity:0.5;fill:black;fill-opacity:1;stroke:none;stroke-width:1px;stroke-linecap:butt;stroke-linejoin:miter;stroke-opacity:1"
                xml:space="preserve"><tspan
                style="font-size:225px;fill:black;fill-opacity:1"
                y="336.34985"
                x="263.09167"
                id="tspan3353">X</tspan>
            </text>  
        </symbol>        
    
        
        <symbol id="symbol-icon-close" viewBox="0 0 1024 1024">
            <title>cross-circle</title>
            <path class="path1" d="M733.808 723.266l-208.874-185.666 208.874-185.667c10.566-9.394 11.518-25.574 2.126-36.141-9.394-10.566-25.574-11.522-36.142-2.126l-213.392 189.682-213.392-189.68c-10.568-9.392-26.749-8.44-36.141 2.126-9.394 10.566-8.442 26.749 2.126 36.141l208.874 185.666-208.875 185.666c-10.566 9.394-11.518 25.574-2.126 36.142 5.059 5.691 12.085 8.592 19.142 8.592 6.048 0 12.122-2.131 16.998-6.466l213.394-189.683 213.392 189.683c4.878 4.334 10.949 6.466 16.998 6.466 7.058 0 14.086-2.902 19.144-8.592 9.392-10.568 8.44-26.749-2.126-36.142z"></path>
            <path class="path2" d="M486.4 1024c-129.922 0-252.067-50.594-343.936-142.464s-142.464-214.014-142.464-343.936c0-129.923 50.595-252.067 142.464-343.936s214.013-142.464 343.936-142.464c129.922 0 252.067 50.595 343.936 142.464s142.464 214.014 142.464 343.936-50.594 252.067-142.464 343.936c-91.869 91.87-214.014 142.464-343.936 142.464zM486.4 102.4c-239.97 0-435.2 195.23-435.2 435.2s195.23 435.2 435.2 435.2 435.2-195.23 435.2-435.2-195.23-435.2-435.2-435.2z">
            </path>
        </symbol>
    
        
        
        <symbol id="lnr-volume-high" viewBox="0 0 1024 1024">
            <title>volume-high</title>
            <path class="path1" d="M699.050 761.893c-7.438 0-14.816-3.227-19.875-9.446-8.922-10.968-7.262-27.093 3.704-36.014 54.096-44.003 85.122-109.187 85.122-178.832s-31.026-134.827-85.12-178.834c-10.968-8.922-12.627-25.046-3.704-36.014s25.046-12.626 36.014-3.702c66.099 53.771 104.010 133.43 104.010 218.55 0 85.122-37.91 164.779-104.011 218.55-4.749 3.862-10.462 5.742-16.139 5.742z"></path>
            <path class="path2" d="M795.915 881.107c-7.438 0-14.814-3.227-19.875-9.446-8.922-10.966-7.264-27.091 3.704-36.014 90.152-73.338 141.856-181.971 141.856-298.046 0-116.077-51.704-224.71-141.854-298.046-10.968-8.922-12.627-25.046-3.704-36.013 8.92-10.968 25.045-12.627 36.014-3.704 102.155 83.101 160.744 206.211 160.744 337.763 0 131.55-58.589 254.661-160.746 337.766-4.747 3.861-10.462 5.741-16.139 5.741z"></path>
            <path class="path3" d="M602.19 642.677c-7.438 0-14.814-3.227-19.875-9.446-8.922-10.966-7.264-27.093 3.704-36.014 18.037-14.672 28.381-36.4 28.381-59.616 0-23.218-10.346-44.949-28.382-59.621-10.966-8.922-12.627-25.046-3.704-36.014s25.045-12.626 36.014-3.704c30.040 24.44 47.272 60.645 47.272 99.339 0 38.691-17.23 74.898-47.27 99.334-4.747 3.861-10.462 5.742-16.139 5.742z"></path><path class="path4" d="M417.291 164.216c-12.64 0-25.318 5.33-37.682 15.838l-209.819 178.346h-92.99c-42.347 0-76.8 34.453-76.8 76.8v204.8c0 42.349 34.453 76.8 76.8 76.8h92.989l209.821 178.346c12.363 10.509 25.040 15.838 37.68 15.838 0 0 0 0 0.002 0 13.931 0 26.429-6.762 34.288-18.55 6.118-9.178 9.221-20.898 9.221-34.834v-640c0-36.877-21.853-53.384-43.509-53.384zM51.2 640v-204.8c0-14.115 11.485-25.6 25.6-25.6h76.8v256h-76.8c-14.115 0-25.6-11.485-25.6-25.6zM409.6 853.442l-204.8-174.080v-283.523l204.8-174.078v631.682z"></path>
        </symbol>
        
        <symbol id="lnr-volume-medium" viewBox="0 0 1024 1024">
            <title>volume-medium</title>
            <path class="path1" d="M699.050 761.893c-7.438 0-14.816-3.227-19.875-9.446-8.922-10.968-7.262-27.093 3.704-36.014 54.096-44.003 85.122-109.187 85.122-178.832s-31.026-134.827-85.12-178.834c-10.968-8.922-12.627-25.046-3.704-36.014s25.046-12.626 36.014-3.702c66.099 53.771 104.010 133.43 104.010 218.55 0 85.122-37.91 164.779-104.011 218.55-4.749 3.862-10.462 5.742-16.139 5.742z"></path>
            <path class="path2" d="M602.19 642.677c-7.438 0-14.814-3.227-19.875-9.446-8.922-10.966-7.264-27.093 3.704-36.014 18.037-14.672 28.381-36.4 28.381-59.616 0-23.218-10.346-44.949-28.382-59.621-10.966-8.922-12.627-25.046-3.704-36.014s25.045-12.626 36.014-3.704c30.040 24.44 47.272 60.645 47.272 99.339 0 38.691-17.23 74.898-47.27 99.334-4.747 3.861-10.462 5.742-16.139 5.742z"></path><path class="path3" d="M417.291 164.216c-12.64 0-25.318 5.33-37.682 15.838l-209.819 178.346h-92.99c-42.347 0-76.8 34.453-76.8 76.8v204.8c0 42.349 34.453 76.8 76.8 76.8h92.989l209.821 178.346c12.363 10.509 25.040 15.838 37.68 15.838 0 0 0 0 0.002 0 13.931 0 26.429-6.762 34.288-18.55 6.118-9.178 9.221-20.898 9.221-34.834v-640c0-36.877-21.853-53.384-43.509-53.384zM51.2 640v-204.8c0-14.115 11.485-25.6 25.6-25.6h76.8v256h-76.8c-14.115 0-25.6-11.485-25.6-25.6zM409.6 853.442l-204.8-174.080v-283.523l204.8-174.078v631.682z"></path>
        </symbol>
        
        <symbol id="lnr-volume-low" viewBox="0 0 1024 1024">
            <title>volume-low</title>
            <path class="path1" d="M602.19 642.677c-7.438 0-14.814-3.227-19.875-9.446-8.922-10.966-7.264-27.093 3.704-36.014 18.037-14.672 28.381-36.4 28.381-59.616 0-23.218-10.346-44.949-28.382-59.621-10.966-8.922-12.627-25.046-3.704-36.014s25.045-12.626 36.014-3.704c30.040 24.44 47.272 60.645 47.272 99.339 0 38.691-17.23 74.898-47.27 99.334-4.747 3.861-10.462 5.742-16.139 5.742z"></path><path class="path2" d="M417.291 164.216c-12.64 0-25.318 5.33-37.682 15.838l-209.819 178.346h-92.99c-42.347 0-76.8 34.453-76.8 76.8v204.8c0 42.349 34.453 76.8 76.8 76.8h92.989l209.821 178.346c12.363 10.509 25.040 15.838 37.68 15.838 0 0 0 0 0.002 0 13.931 0 26.429-6.762 34.288-18.55 6.118-9.178 9.221-20.898 9.221-34.834v-640c0-36.877-21.853-53.384-43.509-53.384zM51.2 640v-204.8c0-14.115 11.485-25.6 25.6-25.6h76.8v256h-76.8c-14.115 0-25.6-11.485-25.6-25.6zM409.6 853.442l-204.8-174.080v-283.523l204.8-174.078v631.682z"></path>
        </symbol>
        
        <symbol id="lnr-volume" viewBox="0 0 1024 1024">
            <title>volume</title>
            <path class="path1" d="M417.291 164.216c-12.64 0-25.318 5.33-37.682 15.838l-209.819 178.346h-92.99c-42.347 0-76.8 34.453-76.8 76.8v204.8c0 42.349 34.453 76.8 76.8 76.8h92.989l209.821 178.346c12.363 10.509 25.040 15.838 37.68 15.838 0 0 0 0 0.002 0 13.931 0 26.429-6.762 34.288-18.55 6.118-9.178 9.221-20.898 9.221-34.834v-640c0-36.877-21.853-53.384-43.509-53.384zM51.2 640v-204.8c0-14.115 11.485-25.6 25.6-25.6h76.8v256h-76.8c-14.115 0-25.6-11.485-25.6-25.6zM409.6 853.442l-204.8-174.080v-283.523l204.8-174.078v631.682z"></path>
        </symbol>
        
        
        <symbol id="symbol_icon_aha" viewBox="0 0 170 170">
           <g
             id="layer4">
            <g
               transform="matrix(0.8660254,-0.5,0.5,0.8660254,-180.57959,-175.29592)"
               id="g6567">
              <path
                 style="display:inline;fill:none;fill-rule:evenodd;stroke:#ffffff;stroke-width:3.00000001;stroke-linecap:butt;stroke-linejoin:miter;stroke-miterlimit:4;stroke-dasharray:none;stroke-opacity:1"
                 d="m 56.771679,310.07055 -7.927501,0 0,21.01092 7.134751,0 0.79275,0 z"
                 id="path4148-6-0-9" />
              <path
                 style="display:inline;fill:none;fill-rule:evenodd;stroke:#ffffff;stroke-width:3.00000001;stroke-linecap:butt;stroke-linejoin:miter;stroke-miterlimit:4;stroke-dasharray:none;stroke-opacity:1"
                 d="m 48.805984,313.05636 -11.999999,0 -6,14.99997 17.999999,0 z"
                 id="path4150-0-2-7" />
              <path
                 style="display:inline;fill:#ffffff;fill-opacity:1;fill-rule:evenodd;stroke:#ffffff;stroke-width:0.1006015;stroke-linecap:butt;stroke-linejoin:miter;stroke-miterlimit:4;stroke-dasharray:none;stroke-opacity:1"
                 d="m 161.29711,311.07602 3,0 0,18.99998 -3,0 z"
                 id="path4156-6-3-3" />
              <path
                 style="display:inline;fill:none;fill-rule:evenodd;stroke:#ffffff;stroke-width:3.00000001;stroke-linecap:butt;stroke-linejoin:miter;stroke-miterlimit:4;stroke-dasharray:none;stroke-opacity:1"
                 d="m 113.77016,310.07602 32,0 15,1 0,18.99998 -15,1 -32,0 z"
                 id="path4158-1-7-6" />
              <path
                 style="display:inline;fill:none;fill-rule:evenodd;stroke:#ffffff;stroke-width:3.00000001;stroke-linecap:butt;stroke-linejoin:miter;stroke-miterlimit:4;stroke-dasharray:none;stroke-opacity:1"
                 d="m 59.828709,310.07602 3,0 c 0,0 14,3 29,0 l 0,0 19.000001,0 0,20.99998 -19.000001,0 c 0,0 -15,-3 -29,0 0,0 6.62e-4,0 0,0 l -3,0 z"
                 id="path4162-8-5-1" />
              <path
                 style="display:inline;fill:none;fill-opacity:1;fill-rule:evenodd;stroke:#ffffff;stroke-width:10;stroke-linecap:butt;stroke-linejoin:miter;stroke-miterlimit:4;stroke-dasharray:none;stroke-dashoffset:0;stroke-opacity:1"
                 d="m 164.29711,320.82278 c 0,0 9.04066,-0.21692 16.96907,4.37629 3.73382,2.16313 12.73382,12.16313 7.63504,21.3523 -14.22379,25.63448 -30.92529,7.82944 -42.8064,21.4364 -11.28781,12.9275 6.29532,26.74936 6.29532,26.74936"
                 id="path4166-7-9-2" />
              <rect
                 style="fill:#ffffff;fill-opacity:1;fill-rule:evenodd;stroke:#ffffff;stroke-width:1;stroke-linecap:butt;stroke-miterlimit:4;stroke-dasharray:none;stroke-dashoffset:0;stroke-opacity:1"
                 id="rect6393-22-9"
                 width="4"
                 height="25"
                 x="110.2971"
                 y="308.07599" />
              <rect
                 style="fill:#ffffff;fill-opacity:1;fill-rule:evenodd;stroke:#ffffff;stroke-width:1;stroke-linecap:butt;stroke-miterlimit:4;stroke-dasharray:none;stroke-dashoffset:0;stroke-opacity:1"
                 id="rect6393-2-8-3"
                 width="4"
                 height="25"
                 x="56.295292"
                 y="308.0593" />
            </g>
          </g>
        </symbol>

<!--
        <symbol id="symbol_icon_aha" viewBox="0 0 1024 1024">
<title>pushpin</title><path class="path1" fill="#fff" d="M921.6 347.797l-270.997-270.997c-9.65-9.65-22.507-14.965-36.203-14.965s-26.554 5.314-36.203 14.965l-14.997 14.997c-14.834 14.834-25.6 40.826-25.6 61.803v51.2c0 7.288-5.45 20.446-10.603 25.6l-142.997 142.997c-5.152 5.154-18.312 10.603-25.6 10.603h-51.2c-20.978 0-46.97 10.766-61.803 25.6l-14.997 14.997c-19.963 19.963-19.963 52.443 0 72.406l79.534 79.534-253.426 329.453c-7.84 10.192-6.902 24.619 2.189 33.71 4.966 4.966 11.522 7.499 18.109 7.499 5.477 0 10.974-1.75 15.602-5.309l329.453-253.426 79.536 79.534c9.65 9.651 22.507 14.966 36.203 14.966s26.554-5.314 36.203-14.966l14.997-14.997c14.834-14.834 25.6-40.826 25.6-61.803v-51.2c0-7.288 5.45-20.446 10.603-25.6l142.997-142.997c5.154-5.154 18.312-10.603 25.6-10.603h51.2c20.976 0 46.968-10.766 61.803-25.6l14.997-14.997c9.65-9.65 14.966-22.507 14.966-36.203s-5.317-26.554-14.966-36.203zM216.757 781.642l129.688-168.594 38.906 38.906-168.594 129.688zM870.4 398.997c-5.154 5.154-18.312 10.603-25.6 10.603h-51.2c-20.976 0-46.968 10.766-61.803 25.6l-142.997 142.997c-14.834 14.834-25.6 40.826-25.6 61.803v51.2c0 7.288-5.45 20.446-10.603 25.6l-14.93 14.958c-0.006 0.003-0.032 0.008-0.067 0.008v0.032l-270.997-270.998 14.998-14.998c5.152-5.154 18.312-10.603 25.6-10.603h51.2c20.978 0 46.97-10.766 61.803-25.6l142.995-142.995c14.834-14.834 25.6-40.826 25.6-61.803v-51.2c0-7.288 5.45-20.446 10.603-25.6l14.997-14.997 270.997 270.997-14.997 14.997z"></path>    
        </symbol>
-->

        
        
        
        <symbol id="symbol_icon_bha" viewBox="0 0 50 50">
            <circle cx="2" cy="25" r="2" fill="#fff"/>
            <circle cx="15" cy="19" r="2" fill="#fff"/>
            <circle cx="25" cy="11" r="2" fill="#fff"/>
            <circle cx="35" cy="17" r="2" fill="#fff"/>
            <circle cx="48" cy="5" r="2" fill="#fff"/>
            <circle cx="2" cy="39" r="2" fill="#fff"/>
            <circle cx="15" cy="41" r="2" fill="#fff"/>
            <circle cx="25" cy="33" r="2" fill="#fff"/>
            <circle cx="35" cy="43" r="2" fill="#fff"/>
            <circle cx="48" cy="31" r="2" fill="#fff"/>
            <polyline fill="none" stroke="#fff" stroke-width="1" stroke-linecap="round" stroke-miterlimit="10" points="2,25 15,19 25,11 
                35,17 48,5 "/>
            <polyline fill="none" stroke="#fff" stroke-width="1" stroke-linecap="round" stroke-miterlimit="10" points="2,39 15,41 25,33 
                35,43 48,31 "/>
        </symbol>
        
        <symbol id="symbol_icon_hyd" viewBox="0 0 50 50">
            <polygon fill="#fff" points="26.6,24.249 40.725,18.691 40.95,19.049 29.07,28.725 "/>
            <path fill="none" stroke="#fff" stroke-width="1" stroke-linecap="round" stroke-linejoin="round" stroke-miterlimit="10" d="
                M25,24c-2.211,0-4,1.792-4,4s1.789,4,4,4s4-1.792,4-4C29,25.791,27.211,24,25,24z"/>
            <path fill="none" stroke="#fff" stroke-width="1" stroke-linecap="round" stroke-linejoin="round" stroke-miterlimit="10" d="
                M44.959,41.338C47.512,37.523,49,32.938,49,28C49,14.736,38.264,4,25,4C11.736,4,1,14.736,1,28c0,4.936,1.488,9.521,4.037,13.332"/>
            <line fill="none" stroke="#fff" stroke-width="1" stroke-linecap="round" stroke-linejoin="round" stroke-miterlimit="10" x1="49" y1="28" x2="46" y2="28"/>
            <line fill="none" stroke="#fff" stroke-width="1" stroke-linecap="round" stroke-linejoin="round" stroke-miterlimit="10" x1="1" y1="28" x2="4" y2="28"/>
            <line fill="none" stroke="#fff" stroke-width="1" stroke-linecap="round" stroke-linejoin="round" stroke-miterlimit="10" x1="25" y1="4" x2="25" y2="7"/>
            <line fill="none" stroke="#fff" stroke-width="1" stroke-linecap="round" stroke-linejoin="round" stroke-miterlimit="10" x1="13" y1="7.215" x2="14.5" y2="9.813"/>
            <line fill="none" stroke="#fff" stroke-width="1" stroke-linecap="round" stroke-linejoin="round" stroke-miterlimit="10" x1="45.785" y1="40" x2="43.188" y2="38.5"/>
            <line fill="none" stroke="#fff" stroke-width="1" stroke-linecap="round" stroke-linejoin="round" stroke-miterlimit="10" x1="4.215" y1="16" x2="6.813" y2="17.5"/>
            <line fill="none" stroke="#fff" stroke-width="1" stroke-linecap="round" stroke-linejoin="round" stroke-miterlimit="10" x1="4.216" y1="40" x2="6.814" y2="38.5"/>
            <line fill="none" stroke="#fff" stroke-width="1" stroke-linecap="round" stroke-linejoin="round" stroke-miterlimit="10" x1="45.785" y1="16" x2="43.188" y2="17.5"/>
            <line fill="none" stroke="#fff" stroke-width="1" stroke-linecap="round" stroke-linejoin="round" stroke-miterlimit="10" x1="37" y1="7.214" x2="35.5" y2="9.813"/>
            <rect x="14.999" y="41" fill="none" stroke="#fff" stroke-width="1" stroke-linecap="round" stroke-linejoin="round" stroke-miterlimit="10" width="20.002" height="3.998"/>        
        </symbol>
        <symbol id="symbol_icon_oxygen" viewBox="0 0 50 50">
            <path fill="none" stroke="#fff" stroke-width="1" stroke-linecap="round" stroke-linejoin="round" stroke-miterlimit="10" d="
                M32,35c0,0,8.312,0,9.098,0C45.463,35,49,31.463,49,27.1c0-4.365-3.537-7.902-7.902-7.902c-0.02,0-0.037,0.003-0.058,0.003
                c0.062-0.494,0.103-0.994,0.103-1.504c0-6.71-5.438-12.15-12.149-12.15c-5.229,0-9.672,3.309-11.386,7.941
                c-1.087-1.089-2.591-1.764-4.251-1.764c-3.319,0-6.009,2.69-6.009,6.008c0,0.085,0.01,0.167,0.013,0.251
                C3.695,18.995,1,22.344,1,26.331C1,31.119,4.881,35,9.67,35c0.827,0,8.33,0,8.33,0"/>
            <polyline fill="none" stroke="#fff" stroke-width="1" stroke-linecap="round" stroke-miterlimit="10" points="30,41 25,46 20,41 
                "/>
            <line fill="none" stroke="#fff" stroke-width="1" stroke-linecap="round" stroke-miterlimit="10" x1="25" y1="26" x2="25" y2="45.668"/>        
        </symbol>
        
   
        
        <symbol id="symbol_icon_configuration" viewBox="0 0 1024 1024">
            <title>cog</title>
            <path class="path1" fill="#fff" d="M390.71 1008.755c-2.109 0-4.248-0.262-6.378-0.81-45.976-11.803-90.149-30.042-131.291-54.21-11.923-7.003-16.13-22.21-9.501-34.344 8.15-14.925 12.459-31.866 12.459-48.992 0-56.464-45.936-102.4-102.4-102.4-17.125 0-34.066 4.309-48.992 12.459-12.133 6.627-27.339 2.421-34.342-9.501-24.17-41.142-42.408-85.315-54.211-131.293-3.333-12.989 3.92-26.349 16.629-30.629 41.699-14.037 69.717-53.034 69.717-97.037s-28.018-83-69.718-97.040c-12.707-4.278-19.962-17.638-16.627-30.627 11.803-45.976 30.042-90.149 54.211-131.291 7.003-11.923 22.21-16.13 34.344-9.501 14.923 8.15 31.864 12.459 48.99 12.459 56.464 0 102.4-45.936 102.4-102.4 0-17.126-4.309-34.067-12.459-48.99-6.629-12.134-2.422-27.341 9.501-34.344 41.141-24.168 85.314-42.408 131.291-54.211 12.994-3.334 26.349 3.92 30.627 16.627 14.040 41.701 53.037 69.718 97.040 69.718s83-28.018 97.038-69.717c4.28-12.71 17.645-19.965 30.629-16.629 45.976 11.802 90.15 30.042 131.293 54.211 11.922 7.003 16.128 22.208 9.501 34.342-8.152 14.926-12.461 31.867-12.461 48.992 0 56.464 45.936 102.4 102.4 102.4 17.126 0 34.067-4.309 48.992-12.459 12.138-6.629 27.341-2.421 34.344 9.501 24.166 41.141 42.406 85.314 54.21 131.291 3.334 12.989-3.918 26.349-16.627 30.627-41.701 14.040-69.718 53.037-69.718 97.040s28.018 83 69.718 97.038c12.707 4.28 19.962 17.638 16.627 30.629-11.803 45.976-30.042 90.15-54.21 131.291-7.005 11.925-22.208 16.128-34.344 9.502-14.926-8.152-31.867-12.461-48.992-12.461-56.464 0-102.4 45.936-102.4 102.4 0 17.125 4.309 34.066 12.461 48.992 6.627 12.136 2.421 27.341-9.502 34.344-41.141 24.166-85.314 42.406-131.291 54.21-12.992 3.336-26.349-3.918-30.629-16.627-14.038-41.701-53.035-69.718-97.038-69.718s-83 28.018-97.040 69.718c-3.578 10.624-13.502 17.437-24.25 17.437zM512 870.4c57.715 0 109.693 32.138 135.917 82.029 26.637-8.218 52.507-18.875 77.299-31.846-5.541-16.077-8.416-33.075-8.416-50.182 0-84.696 68.904-153.6 153.6-153.6 17.107 0 34.106 2.875 50.181 8.418 12.971-24.792 23.63-50.662 31.846-77.299-49.89-26.226-82.027-78.203-82.027-135.918s32.138-109.691 82.029-135.918c-8.218-26.637-18.875-52.506-31.846-77.299-16.077 5.542-33.074 8.418-50.182 8.418-84.696 0-153.6-68.904-153.6-153.6 0-17.107 2.875-34.106 8.418-50.181-24.792-12.971-50.662-23.63-77.299-31.846-26.226 49.89-78.203 82.027-135.918 82.027s-109.691-32.138-135.917-82.027c-26.637 8.216-52.507 18.874-77.299 31.846 5.542 16.075 8.416 33.072 8.416 50.181 0 84.696-68.904 153.6-153.6 153.6-17.109 0-34.106-2.874-50.181-8.418-12.973 24.794-23.63 50.662-31.846 77.299 49.89 26.227 82.027 78.203 82.027 135.918s-32.138 109.693-82.027 135.917c8.216 26.637 18.875 52.507 31.846 77.299 16.075-5.541 33.074-8.416 50.181-8.416 84.696 0 153.6 68.904 153.6 153.6 0 17.109-2.875 34.106-8.418 50.181 24.794 12.971 50.662 23.63 77.299 31.846 26.227-49.89 78.203-82.027 135.918-82.027z"></path>
            <path class="path2" fill="#fff" d="M512 665.6c-84.696 0-153.6-68.904-153.6-153.6s68.904-153.6 153.6-153.6 153.6 68.904 153.6 153.6-68.904 153.6-153.6 153.6zM512 409.6c-56.464 0-102.4 45.936-102.4 102.4s45.936 102.4 102.4 102.4c56.464 0 102.4-45.936 102.4-102.4s-45.936-102.4-102.4-102.4z"></path>
        </symbol>
        
    </defs>
</svg>